<?xml version="1.0" standalone="no"?>
<!DOCTYPE svg PUBLIC "-//W3C//DTD SVG 20010904//EN"
 "http://www.w3.org/TR/2001/REC-SVG-20010904/DTD/svg10.dtd">
<svg version="1.0" xmlns="http://www.w3.org/2000/svg"
 width="200.000000pt" height="200.000000pt" viewBox="0 0 200.000000 200.000000"
 preserveAspectRatio="xMidYMid meet">

<g transform="translate(0.000000,200.000000) scale(0.100000,-0.100000)"
fill="#000000" stroke="none">
<path d="M953 1541 c-18 -12 -33 -25 -33 -31 0 -6 -64 -11 -162 -12 l-163 -3
-3 -522 -2 -523 22 -5 c13 -3 196 -4 408 -3 l385 3 0 525 0 525 -158 3 c-154
2 -159 3 -180 27 -31 35 -74 41 -114 16z m73 -62 c3 -6 -1 -18 -10 -27 -15
-15 -17 -15 -32 0 -19 19 -11 38 16 38 10 0 22 -5 26 -11z m-92 -66 c34 -39
98 -39 132 0 23 27 24 27 154 27 l130 0 0 -470 0 -470 -350 0 -350 0 0 470 0
470 130 0 c130 0 131 0 154 -27z"/>
<path d="M923 1303 c4 -3 -3 -18 -15 -32 l-23 -26 27 24 c24 21 29 41 11 41
-4 0 -3 -3 0 -7z"/>
<path d="M829 1243 c-13 -16 -12 -17 4 -4 9 7 17 15 17 17 0 8 -8 3 -21 -13z"/>
<path d="M1000 1235 l0 -25 145 0 145 0 0 25 0 25 -145 0 -145 0 0 -25z"/>
<path d="M754 1183 c30 -34 50 -41 61 -23 3 6 -1 7 -10 4 -10 -4 -28 4 -48 22
l-32 29 29 -32z"/>
<path d="M817 1189 c7 -7 15 -10 18 -7 3 3 -2 9 -12 12 -14 6 -15 5 -6 -5z"/>
<path d="M747 1017 c-18 -22 -17 -23 12 -49 l30 -27 -26 -31 c-24 -29 -25 -33
-10 -48 15 -15 19 -14 47 13 l30 29 29 -28 c27 -26 31 -27 45 -13 22 21 20 28
-11 54 l-26 23 28 30 29 30 -20 20 c-20 20 -20 20 -49 -10 l-29 -30 -30 29
-31 30 -18 -22z"/>
<path d="M1000 945 l0 -25 145 0 145 0 0 25 0 25 -145 0 -145 0 0 -25z"/>
<path d="M905 730 c-4 -7 -1 -19 7 -27 14 -13 16 -13 21 0 7 20 -18 43 -28 27z
m20 -10 c3 -5 1 -10 -4 -10 -6 0 -11 5 -11 10 0 6 2 10 4 10 3 0 8 -4 11 -10z"/>
<path d="M859 683 c-13 -16 -12 -17 3 -5 9 8 23 10 29 6 8 -4 9 -3 5 4 -10 17
-21 15 -37 -5z"/>
<path d="M719 664 c-10 -13 -7 -20 17 -42 l28 -27 -23 27 c-24 27 -21 51 4 41
8 -3 15 -3 15 0 0 13 -30 14 -41 1z"/>
<path d="M1007 674 c-4 -4 -7 -18 -7 -31 l0 -23 145 0 145 0 0 25 0 25 -117 0
c-65 0 -127 3 -138 6 -11 3 -24 2 -28 -2z"/>
<path d="M820 649 c-13 -9 -12 -10 3 -5 15 5 22 -5 18 -27 -1 -5 3 -6 9 -2 7
4 7 12 0 26 -12 22 -11 22 -30 8z"/>
</g>
</svg>
